#!OML:ASF H:\BabyWalks\Project 1\Capture day 1\Session 1\baby.ASF
:FULLY-SPECIFIED
:DEGREES
332
root -13.7618 17.712 -7.67057 -162.786 73.7045 -168.585
lowerback 18.9527 -1.11063 3.88818
upperback 4.19652 -0.130733 2.92442
thorax -6.0885 0.0448289 0.937031
lowerneck 2.80556 0.73282 6.51925
upperneck -23.1902 1.14235 -6.65721
head -7.46373 0.929767 -3.43606
rclavicle 2.3059e-014 3.18055e-014
rhumerus -45.8477 3.83651 -81.8743
rradius 51.6167
rwrist -4.52452
rhand -9.78473 -16.0948
rfingers 7.12502
rthumb 16.1909 -45.4386
lclavicle 2.3059e-014 3.18055e-014
lhumerus -51.362 -8.2711 84.0849
lradius 54.01
lwrist 5.09044
lhand 0.346538 12.9118
lfingers 7.12502
lthumb 25.9223 41.1644
rfemur -11.3984 24.4235 22.5922
rtibia 27.4323
rfoot -19.8754 -6.68568
rtoes -8.6373
lfemur -31.2422 -1.14743 -7.60099
ltibia 41.0351
lfoot -20.8908 -12.0163
ltoes -5.93251
333
root -13.6766 17.7299 -7.72728 -162.336 73.8892 -168.118
lowerback 18.888 -1.01727 3.89764
upperback 4.21569 -0.0188059 2.8625
thorax -6.03199 0.0984075 0.837677
lowerneck 2.89335 0.674152 6.45184
upperneck -23.1671 1.0764 -6.54271
head -7.47879 0.892411 -3.38228
rclavicle -5.56597e-014 3.97569e-015
rhumerus -45.767 3.8036 -81.9325
rradius 51.6391
rwrist -4.58151
rhand -9.74539 -16.1126
rfingers 7.12502
rthumb 16.2288 -45.4533
lclavicle -5.56597e-014 3.97569e-015
lhumerus -51.4739 -8.2333 84.0118
lradius 54.0036
lwrist 5.08212
lhand 0.405937 12.9607
lfingers 7.12502
lthumb 25.9791 41.2051
rfemur -10.5591 24.521 22.7205
rtibia 26.452
rfoot -19.668 -6.58306
rtoes -8.73503
lfemur -31.2438 -1.88583 -7.12103
ltibia 39.0561
lfoot -20.6399 -11.3178
ltoes -5.79278
334
root -13.5912 17.7462 -7.78526 -161.847 74.0976 -167.608
lowerback 18.8217 -0.92016 3.89644
upperback 4.23572 0.0955854 2.79856
thorax -5.97337 0.15336 0.741954
lowerneck 2.98063 0.619442 6.38302
upperneck -23.1343 1.0159 -6.42461
head -7.49006 0.857139 -3.32703
rclavicle 6.2816e-014 5.1684e-015
rhumerus -45.6878 3.76505 -81.9852
rradius 51.6389
rwrist -4.60903
rhand -9.71962 -16.1314
rfingers 7.12502
rthumb 16.2536 -45.4702
lclavicle 6.2816e-014 5.1684e-015
lhumerus -51.5841 -8.20501 83.945
lradius 54.0042
lwrist 5.09722
lhand 0.482187 13
lfingers 7.12502
lthumb 26.0521 41.2335
rfemur -9.71128 24.5993 22.8451
rtibia 25.4559
rfoot -19.4598 -6.43221
rtoes -8.83063
lfemur -31.213 -2.64316 -6.62454
ltibia 37.1236
lfoot -20.3701 -10.6382
ltoes -5.73222
335
root -13.5057 17.7606 -7.84451 -161.332 74.3265 -167.067
lowerback 18.7534 -0.820981 3.87872
upperback 4.25891 0.209419 2.73486
thorax -5.91003 0.208441 0.656284
lowerneck 3.06622 0.571726 6.3093
upperneck -23.0969 0.964362 -6.30591
head -7.49879 0.826366 -3.27114
rclavicle 3.18055e-015 1.19271e-015
rhumerus -45.6053 3.73065 -82.03
rradius 51.6189
rwrist -4.60852
rhand -9.70291 -16.1536
rfingers 7.12502
rthumb 16.2697 -45.491
lclavicle 3.18055e-015 1.19271e-015
lhumerus -51.6869 -8.18174 83.8882
lradius 54.0104
lwrist 5.13207
lhand 0.572122 13.0375
lfingers 7.12502
lthumb 26.1383 41.2584
rfemur -8.85515 24.6575 22.9624
rtibia 24.4491
rfoot -19.2533 -6.24128
rtoes -8.93605
lfemur -31.1571 -3.40346 -6.1258
ltibia 35.2652
lfoot -20.0838 -9.98915
ltoes -5.73799
336
root -13.4198 17.7731 -7.90463 -160.776 74.5693 -166.479
lowerback 18.6859 -0.724857 3.84408
upperback 4.28593 0.31652 2.67443
thorax -5.843 0.26073 0.585623
lowerneck 3.14445 0.53397 6.2289
upperneck -23.0536 0.925617 -6.18612
head -7.50321 0.802018 -3.2143
rclavicle 1.15295e-014 2.78299e-015
rhumerus -45.5148 3.71115 -82.0712
rradius 51.5859
rwrist -4.59577
rhand -9.68583 -16.1863
rfingers 7.12502
rthumb 16.2862 -45.5224
lclavicle 1.15295e-014 2.78299e-015
lhumerus -51.7833 -8.1534 83.8394
lradius 54.0227
lwrist 5.1814
lhand 0.66998 13.0833
lfingers 7.12502
lthumb 26.2319 41.2903
rfemur -7.99061 24.6985 23.0793
rtibia 23.4332
rfoot -19.0494 -6.01607
rtoes -9.034
lfemur -31.0855 -4.14425 -5.63149
ltibia 33.5062
lfoot -19.7842 -9.38074
ltoes -5.79867
337
root -13.3338 17.7833 -7.96561 -160.166 74.8262 -165.835
lowerback 18.6155 -0.626976 3.79903
upperback 4.31323 0.4238 2.61374
thorax -5.7741 0.313267 0.520889
lowerneck 3.22301 0.501564 6.15372
upperneck -23.0098 0.894467 -6.06758
head -7.50692 0.780914 -3.15928
rclavicle 1.0138e-014 -2.38542e-015
rhumerus -45.4254 3.69774 -82.1129
rradius 51.5396
rwrist -4.5708
rhand -9.68198 -16.214
rfingers 7.12502
rthumb 16.2899 -45.5498
lclavicle 1.0138e-014 -2.38542e-015
lhumerus -51.8732 -8.13998 83.7978
lradius 54.0387
lwrist 5.24773
lhand 0.776541 13.1207
lfingers 7.12502
lthumb 26.334 41.3125
rfemur -7.12481 24.727 23.1944
rtibia 22.4102
rfoot -18.8489 -5.76013
rtoes -9.12504
lfemur -31.0074 -4.84462 -5.15004
ltibia 31.869
lfoot -19.485 -8.8255
ltoes -5.88609
338
root -13.2475 17.7911 -8.02765 -159.48 75.0966 -165.11
lowerback 18.54 -0.531853 3.73982
upperback 4.34545 0.52538 2.56078
thorax -5.69743 0.363565 0.474085
lowerneck 3.29349 0.481565 6.07427
upperneck -22.9629 0.87864 -5.95428
head -7.50694 0.767905 -3.10614
rclavicle -9.93923e-016 2.5842e-014
rhumerus -45.3271 3.71117 -82.1513
rradius 51.4831
rwrist -4.52924
rhand -9.67984 -16.2415
rfingers 7.12502
rthumb 16.2919 -45.5771
lclavicle -9.93923e-016 2.5842e-014
lhumerus -51.954 -8.11641 83.7664
lradius 54.0599
lwrist 5.31961
lhand 0.894118 13.1624
lfingers 7.12502
lthumb 26.4465 41.3373
rfemur -6.25495 24.7464 23.3123
rtibia 21.3796
rfoot -18.653 -5.47241
rtoes -9.19032
lfemur -30.9226 -5.4877 -4.6883
ltibia 30.3738
lfoot -19.2025 -8.32591
ltoes -6.00923
339
root -13.1609 17.7962 -8.09067 -158.706 75.3732 -164.294
lowerback 18.4631 -0.440312 3.67841
upperback 4.37663 0.622189 2.51036
thorax -5.62123 0.411573 0.432703
lowerneck 3.36863 0.47062 5.99885
upperneck -22.9193 0.875675 -5.84225
head -7.50798 0.760833 -3.05517
rclavicle 1.53064e-014 3.57812e-015
rhumerus -45.233 3.74516 -82.1939
rradius 51.4187
rwrist -4.4681
rhand -9.68445 -16.2575
rfingers 7.12502
rthumb 16.2875 -45.5934
lclavicle 1.53064e-014 3.57812e-015
lhumerus -52.0319 -8.09437 83.7389
lradius 54.0834
lwrist 5.39551
lhand 1.0216 13.2035
lfingers 7.12502
lthumb 26.5685 41.3599
rfemur -5.38256 24.7384 23.4347
rtibia 20.3414
rfoot -18.4661 -5.13841
rtoes -9.2218
lfemur -30.8359 -6.06441 -4.25278
ltibia 29.0353
lfoot -18.949 -7.88569
ltoes -6.16031
340
root -13.074 17.7982 -8.15486 -157.803 75.652 -163.344
lowerback 18.385 -0.346327 3.63844
upperback 4.4058 0.725894 2.45429
thorax -5.54612 0.46261 0.371972
lowerneck 3.44657 0.458721 5.95731
upperneck -22.8774 0.873821 -5.73682
head -7.50982 0.752014 -3.01238
rclavicle 1.03368e-014 -1.31198e-014
rhumerus -45.1508 3.76131 -82.2444
rradius 51.3493
rwrist -4.38815
rhand -9.68537 -16.2673
rfingers 7.12502
rthumb 16.2866 -45.6033
lclavicle 1.03368e-014 -1.31198e-014
lhumerus -52.1034 -8.11482 83.7135
lradius 54.1106
lwrist 5.47308
lhand 1.15609 13.2444
lfingers 7.12502
lthumb 26.6972 41.3814
rfemur -4.50633 24.7087 23.5699
rtibia 19.2923
rfoot -18.2891 -4.75919
rtoes -9.2072
lfemur -30.7474 -6.57495 -3.83929
ltibia 27.8654
lfoot -18.7419 -7.4953
ltoes -6.3502
341
root -12.987 17.7969 -8.22023 -156.762 75.9246 -162.254
lowerback 18.3026 -0.261204 3.60469
upperback 4.43692 0.820175 2.40912
thorax -5.46688 0.509306 0.321846
lowerneck 3.51774 0.458824 5.91296
upperneck -22.8378 0.888575 -5.63013
head -7.51015 0.751341 -2.96985
rclavicle 3.18055e-015 -3.97569e-016
rhumerus -45.066 3.80748 -82.294
rradius 51.2747
rwrist -4.28699
rhand -9.68424 -16.2645
rfingers 7.12502
rthumb 16.2877 -45.6005
lclavicle 3.18055e-015 -3.97569e-016
lhumerus -52.1667 -8.1204 83.6947
lradius 54.1397
lwrist 5.54255
lhand 1.30056 13.2738
lfingers 7.12502
lthumb 26.8355 41.3896
rfemur -3.62674 24.6552 23.7188
rtibia 18.2304
rfoot -18.124 -4.33634
rtoes -9.14608
lfemur -30.6617 -7.02533 -3.44923
ltibia 26.8729
lfoot -18.5815 -7.14527
ltoes -6.60434
342
root -12.8998 17.7922 -8.28711 -155.577 76.189 -161.016
lowerback 18.218 -0.187861 3.58149
upperback 4.46827 0.90197 2.37378
thorax -5.38636 0.550018 0.279395
lowerneck 3.57525 0.475474 5.84844
upperneck -22.7924 0.9273 -5.50558
head -7.50492 0.762189 -2.91936
rclavicle 1.48095e-014 -3.1408e-014
rhumerus -44.9812 3.89455 -82.3451
rradius 51.1949
rwrist -4.17084
rhand -9.67897 -16.2491
rfingers 7.12502
rthumb 16.2928 -45.5846
lclavicle 1.48095e-014 -3.1408e-014
lhumerus -52.2255 -8.10048 83.6791
lradius 54.1708
lwrist 5.59899
lhand 1.45244 13.291
lfingers 7.12502
lthumb 26.9808 41.3844
rfemur -2.74201 24.5707 23.8778
rtibia 17.1508
rfoot -17.9708 -3.86097
rtoes -9.04066
lfemur -30.5775 -7.42189 -3.08455
ltibia 26.0635
lfoot -18.4498 -6.83172
ltoes -6.93602
